<svg id="Layer_1" data-name="Layer 1" xmlns="http://www.w3.org/2000/svg" viewBox="0 0 403.94 106.6"><defs><style>.cls-1{fill:#1dd660;}.cls-2{fill:#81af88;}.cls-3{fill:#619aff;opacity:0.8;}.cls-4{opacity:0.42;}</style></defs><title>Green Map</title><polygon class="cls-1" points="77.14 5.67 64.33 27.3 64.33 27.3 76.15 34.26 80.11 23.24 85.63 7.87 79.48 1.71 77.14 5.67"/><path class="cls-1" d="M161.87,354.56l14.28.2v-6.13a5.37,5.37,0,0,1,10.75,0v6.27l4.66.06.13-.22,17.78-30-6.11-3.6h0l-7-4.12h0l-9.08-5.34Zm19.79-11.94a3.49,3.49,0,1,1,3.49-3.49A3.49,3.49,0,0,1,181.65,342.62Z" transform="translate(-148.03 -296.7)"/><polygon class="cls-1" points="99.14 21.39 87.29 9.53 81.89 24.56 78.02 35.35 88.86 41.74 99.14 21.39"/><polygon class="cls-1" points="75.43 36.28 63.25 29.12 63.25 29.12 45.96 58.3 45.69 58.76 64.94 65.49 64.94 65.49 75.43 36.29 75.43 36.28"/><path class="cls-1" d="M238.81,403.3l14.63-32.54-29.18-2.6-.1.19h0l-16,31.57,13.72,1.52V395.3a5.37,5.37,0,0,1,10.75,0v7.32Zm-11.39-14a3.49,3.49,0,1,1,3.49-3.49A3.49,3.49,0,0,1,227.42,389.29Z" transform="translate(-148.03 -296.7)"/><polygon class="cls-1" points="87.9 43.64 77.28 37.38 77.28 37.38 71.38 53.83 66.94 66.18 75.07 69.03 87.9 43.64"/><path class="cls-1" d="M188.35,309.86h0l8,4.7v-1.25a5.37,5.37,0,1,1,10.75,0v7.59l3.44,2,12.76-21.55,2.14-3.61H195.52Zm13.5-9.54a3.49,3.49,0,1,1-3.49,3.49A3.49,3.49,0,0,1,201.85,300.31Z" transform="translate(-148.03 -296.7)"/><polygon class="cls-1" points="112.56 58.16 104.89 53.65 96.35 48.62 96.35 48.61 89.73 44.72 77.25 69.42 106.33 72.02 112.56 58.16"/><path class="cls-1" d="M278.61,314.79l-29.45,4.07-10.44,20.66h0l5.66,3.33v-.35a5.37,5.37,0,1,1,10.75,0v6.68h0l6.34,3.73ZM249.88,336.5a3.49,3.49,0,1,1,3.49-3.49A3.49,3.49,0,0,1,249.88,336.5Z" transform="translate(-148.03 -296.7)"/><polygon class="cls-1" points="73.96 71.25 74.11 70.94 66.22 68.18 54.84 99.87 58.18 102.47 73.96 71.25"/><polygon class="cls-1" points="12.49 60.15 0 81.23 29.93 81.23 42.27 60.37 27.44 60.17 12.59 59.97 12.49 60.15"/><polygon class="cls-1" points="64.22 67.49 64.22 67.48 44.59 60.62 31.91 82.02 53.08 98.51 64.22 67.49"/><path class="cls-2" d="M282.27,365c0-12.15,9.22-19.87,20.51-19.87a17.93,17.93,0,0,1,15.84,8.58l-6.74,3.69a11,11,0,0,0-9.1-5c-7,0-12.1,5.36-12.1,12.62s5.07,12.62,12.1,12.62a12.78,12.78,0,0,0,8.12-2.94V370H300.76V362.9h18.32v14.75a21.25,21.25,0,0,1-16.3,7.2C291.49,384.84,282.27,377.07,282.27,365Z" transform="translate(-148.03 -296.7)"/><path class="cls-2" d="M325.42,384.15V356.33h7.32v3.74a12.2,12.2,0,0,1,8.87-4.44v7.14a9.34,9.34,0,0,0-2-.17c-2.42,0-5.65,1.38-6.85,3.17v18.38Z" transform="translate(-148.03 -296.7)"/><path class="cls-2" d="M344.37,370.21a14.19,14.19,0,0,1,14.4-14.57c8.35,0,13.94,6.22,13.94,15.26v1.73H352c.52,3.4,3.28,6.22,8,6.22a11.64,11.64,0,0,0,7.37-2.71l3.28,4.84c-2.76,2.53-7.14,3.86-11.46,3.86C350.76,384.84,344.37,379.14,344.37,370.21Zm14.4-8.58a6.42,6.42,0,0,0-6.8,5.93h13.71C365.45,364.91,363.61,361.63,358.77,361.63Z" transform="translate(-148.03 -296.7)"/><path class="cls-2" d="M376.22,370.21a14.2,14.2,0,0,1,14.4-14.57c8.35,0,13.94,6.22,13.94,15.26v1.73H383.88c.52,3.4,3.28,6.22,8,6.22a11.64,11.64,0,0,0,7.37-2.71l3.28,4.84c-2.76,2.53-7.14,3.86-11.46,3.86C382.61,384.84,376.22,379.14,376.22,370.21Zm14.4-8.58a6.42,6.42,0,0,0-6.8,5.93h13.71C397.3,364.91,395.46,361.63,390.62,361.63Z" transform="translate(-148.03 -296.7)"/><path class="cls-2" d="M428.64,384.15V367.33c0-3.86-2-5.18-5.13-5.18a8.14,8.14,0,0,0-6.34,3.23v18.78h-7.32V356.33h7.32v3.57a13,13,0,0,1,9.73-4.26c6.16,0,9.1,3.46,9.1,8.87v19.64Z" transform="translate(-148.03 -296.7)"/><path class="cls-3" d="M476.8,384.15V356.45L466,384.15H462.4l-10.83-27.71v27.71h-8.18V345.73h11.46l9.33,24,9.33-24H485v38.42Z" transform="translate(-148.03 -296.7)"/><path class="cls-3" d="M509.17,384.15v-2.94a11.35,11.35,0,0,1-8.81,3.63c-4.44,0-9.62-3-9.62-9.22,0-6.57,5.18-9,9.62-9,3.74,0,7,1.21,8.81,3.4v-3.51c0-2.82-2.42-4.67-6.11-4.67a11.69,11.69,0,0,0-8,3.28L492.18,360a18,18,0,0,1,12.15-4.38c6.39,0,12.21,2.54,12.21,10.54v18Zm0-6.68V374a7.35,7.35,0,0,0-5.87-2.48c-2.88,0-5.24,1.56-5.24,4.21s2.36,4.15,5.24,4.15C505.66,379.89,508,379.08,509.17,377.47Z" transform="translate(-148.03 -296.7)"/><path class="cls-3" d="M531.06,380.58v14.17h-7.32V356.33h7.32v3.51a10.75,10.75,0,0,1,8.58-4.21c7.14,0,12.33,5.3,12.33,14.57s-5.18,14.63-12.33,14.63A10.71,10.71,0,0,1,531.06,380.58Zm13.36-10.37c0-4.78-2.88-8.06-7.08-8.06a8.11,8.11,0,0,0-6.28,3.17v9.79a8.25,8.25,0,0,0,6.28,3.23C541.54,378.33,544.42,375.05,544.42,370.21Z" transform="translate(-148.03 -296.7)"/><polygon class="cls-4" points="100.43 21.18 89.3 43.23 85.98 49.78 76.5 68.56 75.6 70.34 58.54 104.1 53.58 100.24 30.53 82.28 41.51 63.74 44.12 59.33 62.88 27.67 64.49 24.95 79.26 0 86.86 7.6 100.43 21.18"/></svg>